<?xml version="1.0" standalone="no"?>
<!DOCTYPE svg PUBLIC "-//W3C//DTD SVG 20010904//EN"
 "http://www.w3.org/TR/2001/REC-SVG-20010904/DTD/svg10.dtd">
<svg version="1.0" xmlns="http://www.w3.org/2000/svg"
 width="400.000000pt" height="400.000000pt" viewBox="0 0 400.000000 400.000000"
 preserveAspectRatio="xMidYMid meet">
<metadata>
Created by potrace 1.14, written by Peter Selinger 2001-2017
</metadata>
<g transform="translate(0.000000,400.000000) scale(0.100000,-0.100000)"
fill="#000000" stroke="none">
<path d="M1552 3824 c-89 -18 -164 -65 -263 -164 -234 -233 -348 -518 -315
-786 6 -50 34 -143 56 -184 10 -19 4 -29 -64 -100 -166 -174 -213 -340 -138
-488 18 -34 27 -62 21 -62 -5 0 -39 -29 -73 -65 -94 -95 -172 -266 -242 -530
-1 -5 -7 -25 -13 -42 -5 -18 -7 -33 -4 -33 3 0 1 -6 -5 -12 -8 -11 -52 -188
-101 -410 -9 -42 8 -68 45 -68 18 0 19 -8 17 -132 -1 -73 3 -155 8 -183 24
-118 111 -234 191 -256 37 -9 125 -8 168 2 11 3 15 -5 15 -31 l0 -35 160 -2
c543 -5 964 -19 1200 -39 86 -7 160 -8 233 -3 32 2 34 4 30 35 -4 30 -2 32 33
37 20 3 52 12 70 21 55 26 136 103 149 140 6 18 12 85 13 149 1 63 4 118 7
120 3 3 37 8 75 12 39 3 85 8 103 11 17 2 47 6 65 8 30 5 81 10 192 21 70 7
146 17 169 21 44 8 92 57 101 103 2 11 6 24 8 29 3 4 8 34 12 67 3 32 8 62 10
65 2 3 6 23 9 45 7 45 7 45 35 210 11 66 23 136 25 155 3 19 5 35 6 35 1 0 3
14 5 30 2 17 7 48 10 70 4 22 8 50 10 62 2 12 6 34 9 50 3 15 8 47 11 71 6 42
3 45 -35 44 -53 -1 -274 -14 -300 -17 -19 -2 -64 -6 -100 -9 -123 -11 -175
-17 -209 -22 -19 -3 -53 -8 -75 -10 -23 -3 -77 -11 -121 -19 -44 -7 -80 -13
-81 -12 -1 1 -14 29 -29 62 -24 52 -27 74 -29 170 -2 119 -18 169 -76 245 -64
82 -81 149 -54 206 9 19 51 72 92 117 129 141 139 196 76 417 -9 30 -20 64
-24 75 -4 11 -25 69 -45 129 -48 144 -98 272 -148 376 -31 65 -57 101 -111
156 -63 63 -149 120 -195 129 -9 1 -36 8 -61 15 -51 14 -190 15 -235 2 -17 -5
-40 -5 -54 0 -40 14 -173 16 -239 2z m2018 -2104 c0 -5 -2 -10 -4 -10 -3 0 -8
5 -11 10 -3 6 -1 10 4 10 6 0 11 -4 11 -10z"/>
</g>
</svg>
