<?xml version="1.0" standalone="no"?>
<!DOCTYPE svg PUBLIC "-//W3C//DTD SVG 20010904//EN"
 "http://www.w3.org/TR/2001/REC-SVG-20010904/DTD/svg10.dtd">
<svg version="1.0" xmlns="http://www.w3.org/2000/svg"
 width="400.000000pt" height="400.000000pt" viewBox="0 0 400.000000 400.000000"
 preserveAspectRatio="xMidYMid meet">
<metadata>
Created by potrace 1.14, written by Peter Selinger 2001-2017
</metadata>
<g transform="translate(0.000000,400.000000) scale(0.100000,-0.100000)"
fill="#000000" stroke="none">
<path d="M1898 3835 c-2 -1 -32 -6 -68 -9 -146 -15 -341 -72 -496 -147 -293
-139 -561 -392 -716 -674 -68 -126 -144 -325 -163 -430 -2 -16 -7 -39 -9 -50
-95 -487 60 -1027 400 -1387 l44 -46 -26 -69 c-36 -93 -40 -206 -12 -282 49
-132 148 -222 260 -237 33 -5 49 -14 68 -40 42 -56 155 -105 272 -119 36 -4
64 -18 122 -59 88 -63 140 -85 216 -90 157 -11 211 119 165 401 -4 22 -1 23
68 24 120 1 207 9 312 31 55 11 111 22 126 25 21 4 30 -2 54 -37 16 -23 65
-69 109 -103 129 -100 155 -159 96 -219 -16 -16 -30 -36 -30 -43 0 -29 124
-96 178 -97 100 -1 194 86 242 227 44 128 16 256 -89 415 -34 51 -58 96 -54
100 233 190 351 321 460 515 162 289 228 599 201 945 -4 47 -11 108 -17 135
-16 82 -41 184 -50 208 -5 12 -24 60 -42 107 -79 203 -248 449 -400 582 -30
25 -65 56 -79 68 -57 50 -252 170 -346 213 -102 47 -307 112 -386 121 -23 3
-54 8 -68 12 -25 5 -336 14 -342 9z m832 -635 c0 -5 -5 -10 -11 -10 -5 0 -7 5
-4 10 3 6 8 10 11 10 2 0 4 -4 4 -10z m-1445 -119 c3 -5 2 -12 -3 -15 -5 -3
-9 1 -9 9 0 17 3 19 12 6z m1036 -2288 c13 -16 12 -17 -3 -4 -17 13 -22 21
-14 21 2 0 10 -8 17 -17z"/>
</g>
</svg>
